<?xml version="1.0" ?><!-- Uploaded to: SVG Repo, www.svgrepo.com, Generator: SVG Repo Mixer Tools -->
<svg fill="#000000" width="800px" height="800px" viewBox="0 0 32 32" id="Outline" xmlns="http://www.w3.org/2000/svg"><path d="M28,29.25H21.64a.75.75,0,0,1-.66-.4l-5-9.4-5,9.4a.76.76,0,0,1-.67.4H4A.75.75,0,0,1,3.4,29a.77.77,0,0,1-.18-.6L6,6.73a.75.75,0,0,1,.74-.65H25.14a.76.76,0,0,1,.75.65L28.71,28.4a.81.81,0,0,1-.18.6A.77.77,0,0,1,28,29.25Zm-5.87-1.5h5L24.48,7.58h-17L4.82,27.75h5L15.3,17.51a.78.78,0,0,1,1.32,0Z"/><path d="M25.13,7.58H6.79a.75.75,0,0,1-.56-.25.77.77,0,0,1-.18-.6L6.48,3.4a.75.75,0,0,1,.74-.65H24.7a.76.76,0,0,1,.75.65l.43,3.33a.81.81,0,0,1-.18.6A.77.77,0,0,1,25.13,7.58ZM7.65,6.08H24.28L24,4.25H7.88Z"/><path d="M25.85,14.2a6.45,6.45,0,0,1-5.24-2,7.13,7.13,0,0,1-1.22-5.47A.75.75,0,1,1,20.86,7a5.67,5.67,0,0,0,.91,4.23c.85,1,2.25,1.53,4.22,1.5h0a.75.75,0,0,1,0,1.5Z"/><path d="M6.15,14.2H6a.75.75,0,0,1,0-1.5h.14a5.06,5.06,0,0,0,4.08-1.5A5.67,5.67,0,0,0,11.14,7a.75.75,0,1,1,1.47-.29,7.13,7.13,0,0,1-1.22,5.47A6.45,6.45,0,0,1,6.15,14.2Z"/></svg>